<svg xmlns="http://www.w3.org/2000/svg" width="32" height="32" xml:space="preserve"><linearGradient id="a" gradientUnits="userSpaceOnUse" x1="3.104" y1="20.212" x2="13.045" y2="30.153"><stop offset="0" style="stop-color:#000"/><stop offset="1" style="stop-color:#000;stop-opacity:.75"/></linearGradient><path fill-rule="evenodd" clip-rule="evenodd" fill="url(#a)" d="M16 29.029V31a14.918 14.918 0 0 1-10.612-4.398A14.984 14.984 0 0 1 1 16h1.998c0 3.334 1.27 6.668 3.808 9.212A12.946 12.946 0 0 0 16 29.029z"/><linearGradient id="b" gradientUnits="userSpaceOnUse" x1="19.703" y1="29.414" x2="29.165" y2="19.952"><stop offset="0" style="stop-color:#000;stop-opacity:.75"/><stop offset="1" style="stop-color:#000;stop-opacity:.5"/></linearGradient><path fill-rule="evenodd" clip-rule="evenodd" fill="url(#b)" d="M26.602 26.602A14.972 14.972 0 0 1 16 31v-1.971a12.994 12.994 0 0 0 9.213-3.817A12.99 12.99 0 0 0 29.028 16H31a14.974 14.974 0 0 1-4.398 10.602z"/><linearGradient id="c" gradientUnits="userSpaceOnUse" x1="30.344" y1="13.236" x2="18.757" y2="1.649"><stop offset="0" style="stop-color:#000;stop-opacity:.5"/><stop offset="1" style="stop-color:#000;stop-opacity:.25"/></linearGradient><path fill-rule="evenodd" clip-rule="evenodd" fill="url(#c)" d="M29.028 16a12.944 12.944 0 0 0-3.815-9.194A13.005 13.005 0 0 0 16 2.999V1a14.987 14.987 0 0 1 10.602 4.388A14.914 14.914 0 0 1 31 16h-1.972z"/><linearGradient id="d" gradientUnits="userSpaceOnUse" x1="2.247" y1="12.642" x2="12.643" y2="2.245"><stop offset="0" style="stop-color:#000;stop-opacity:0"/><stop offset="1" style="stop-color:#000;stop-opacity:.25"/></linearGradient><path fill-rule="evenodd" clip-rule="evenodd" fill="url(#d)" d="M16 2.999c-3.327 0-6.655 1.269-9.194 3.808S2.998 12.673 2.998 16H1A14.928 14.928 0 0 1 5.388 5.388 14.937 14.937 0 0 1 16 1v1.999z"/><linearGradient id="e" gradientUnits="userSpaceOnUse" x1="10.248" y1="17.701" x2="14.887" y2="22.34"><stop offset="0" style="stop-color:#000"/><stop offset="1" style="stop-color:#000;stop-opacity:.75"/></linearGradient><path fill-rule="evenodd" clip-rule="evenodd" fill="url(#e)" d="M16 23a6.97 6.97 0 0 1-4.953-2.053A7.01 7.01 0 0 1 9 16h1.99a4.984 4.984 0 0 0 1.465 3.54 4.983 4.983 0 0 0 3.544 1.465V23z"/><linearGradient id="f" gradientUnits="userSpaceOnUse" x1="6.68" y1="18.953" x2="13.97" y2="26.243"><stop offset="0" style="stop-color:#000"/><stop offset="1" style="stop-color:#000;stop-opacity:.75"/></linearGradient><path fill-rule="evenodd" clip-rule="evenodd" fill="url(#f)" d="M16 24.989V27a10.92 10.92 0 0 1-7.783-3.227A10.993 10.993 0 0 1 5 16h2.005a8.985 8.985 0 0 0 2.629 6.351A8.938 8.938 0 0 0 16 24.989z"/><linearGradient id="g" gradientUnits="userSpaceOnUse" x1="17.46" y1="21.991" x2="21.875" y2="17.576"><stop offset="0" style="stop-color:#000;stop-opacity:.75"/><stop offset="1" style="stop-color:#000;stop-opacity:.5"/></linearGradient><path fill-rule="evenodd" clip-rule="evenodd" fill="url(#g)" d="M16 23v-1.995a5.001 5.001 0 0 0 3.537-1.465 4.985 4.985 0 0 0 1.47-3.54H23c-.003 1.791-.687 3.58-2.052 4.947S17.792 22.998 16 23z"/><linearGradient id="h" gradientUnits="userSpaceOnUse" x1="22.423" y1="14.981" x2="17.015" y2="9.574"><stop offset="0" style="stop-color:#000;stop-opacity:.5"/><stop offset="1" style="stop-color:#000;stop-opacity:.25"/></linearGradient><path fill-rule="evenodd" clip-rule="evenodd" fill="url(#h)" d="M16 9a6.998 6.998 0 0 1 4.949 2.046A6.955 6.955 0 0 1 23.001 16h-1.994a4.955 4.955 0 0 0-1.469-3.521A5.012 5.012 0 0 0 16 11.019V9z"/><linearGradient id="i" gradientUnits="userSpaceOnUse" x1="26.383" y1="14.11" x2="17.885" y2="5.612"><stop offset="0" style="stop-color:#000;stop-opacity:.5"/><stop offset="1" style="stop-color:#000;stop-opacity:.25"/></linearGradient><path fill-rule="evenodd" clip-rule="evenodd" fill="url(#i)" d="M16 7.006V5a10.997 10.997 0 0 1 7.774 3.217A10.925 10.925 0 0 1 27 16h-2.012a8.928 8.928 0 0 0-2.637-6.365A8.987 8.987 0 0 0 16 7.006z"/><linearGradient id="j" gradientUnits="userSpaceOnUse" x1="9.853" y1="14.704" x2="14.704" y2="9.852"><stop offset="0" style="stop-color:#000;stop-opacity:0"/><stop offset="1" style="stop-color:#000;stop-opacity:.25"/></linearGradient><path fill-rule="evenodd" clip-rule="evenodd" fill="url(#j)" d="M16 9v2.02a4.995 4.995 0 0 0-3.544 1.46 4.953 4.953 0 0 0-1.465 3.521h-1.99a6.97 6.97 0 0 1 2.046-4.954A6.976 6.976 0 0 1 16 9z"/><linearGradient id="k" gradientUnits="userSpaceOnUse" x1="6.049" y1="13.672" x2="13.673" y2="6.048"><stop offset="0" style="stop-color:#000;stop-opacity:0"/><stop offset="1" style="stop-color:#000;stop-opacity:.25"/></linearGradient><path fill-rule="evenodd" clip-rule="evenodd" fill="url(#k)" d="M16 5v2.006a8.954 8.954 0 0 0-6.366 2.629A8.953 8.953 0 0 0 7.005 16H5a10.945 10.945 0 0 1 3.217-7.783A10.947 10.947 0 0 1 16 5z"/><linearGradient id="l" gradientUnits="userSpaceOnUse" x1="18.574" y1="25.695" x2="25.513" y2="18.756"><stop offset="0" style="stop-color:#000;stop-opacity:.75"/><stop offset="1" style="stop-color:#000;stop-opacity:.5"/></linearGradient><path fill-rule="evenodd" clip-rule="evenodd" fill="url(#l)" d="M16 27v-2.011a8.976 8.976 0 0 0 6.352-2.639 8.968 8.968 0 0 0 2.637-6.351H27a10.977 10.977 0 0 1-3.226 7.773A10.975 10.975 0 0 1 16 27z"/></svg>